<?xml version="1.0" standalone="no"?>
<!DOCTYPE svg PUBLIC "-//W3C//DTD SVG 20010904//EN"
 "http://www.w3.org/TR/2001/REC-SVG-20010904/DTD/svg10.dtd">
<svg version="1.0" xmlns="http://www.w3.org/2000/svg"
 width="700.000000pt" height="700.000000pt" viewBox="0 0 700.000000 700.000000"
 preserveAspectRatio="xMidYMid meet">
<metadata>
Created by potrace 1.14, written by Peter Selinger 2001-2017
</metadata>
<g transform="translate(0.000000,700.000000) scale(0.100000,-0.100000)"
fill="#000000" stroke="none">
<path d="M2238 5175 c-2 -1 -30 -5 -63 -8 -131 -13 -313 -63 -447 -124 l-76
-35 95 -192 c53 -105 97 -192 98 -194 2 -2 36 11 76 28 74 31 193 67 259 78
19 3 94 6 165 6 102 -1 150 -6 220 -24 212 -54 443 -184 651 -368 l49 -43 -52
-45 c-155 -134 -301 -395 -401 -719 -59 -189 -108 -406 -132 -581 -6 -44 -12
-91 -15 -103 -2 -12 -7 -57 -11 -99 -4 -42 -8 -90 -10 -107 -17 -166 -23 -612
-9 -790 20 -275 49 -492 91 -683 14 -64 27 -126 30 -137 2 -11 19 -72 37 -135
145 -489 353 -798 593 -880 65 -23 175 -21 242 4 318 116 595 689 698 1441 4
28 8 61 9 75 2 14 6 50 9 80 28 235 37 587 21 865 -10 185 -12 214 -19 269 -3
25 -9 67 -12 94 -3 26 -8 61 -10 77 -3 17 -7 45 -10 64 -4 35 -10 65 -19 111
-3 14 -8 41 -11 60 -3 19 -19 89 -35 155 -104 426 -253 736 -438 913 l-76 74
26 21 c202 166 291 228 424 294 73 37 180 78 230 89 11 3 29 7 40 9 11 3 31 7
45 11 14 3 77 7 140 9 160 6 296 -22 450 -91 33 -15 62 -25 64 -23 1 2 46 90
99 195 l96 191 -67 31 c-322 147 -654 176 -990 87 -233 -62 -458 -183 -705
-378 -62 -49 -91 -66 -100 -59 -6 5 -49 39 -93 74 -335 269 -682 406 -1041
413 -62 1 -114 1 -115 0z"/>
</g>
</svg>
